<?xml version="1.0" encoding="UTF-8" standalone="no"?>
<svg
   xmlns:dc="http://purl.org/dc/elements/1.1/"
   xmlns:cc="http://creativecommons.org/ns#"
   xmlns:rdf="http://www.w3.org/1999/02/22-rdf-syntax-ns#"
   xmlns:svg="http://www.w3.org/2000/svg"
   xmlns="http://www.w3.org/2000/svg"
   xmlns:sodipodi="http://sodipodi.sourceforge.net/DTD/sodipodi-0.dtd"
   xmlns:inkscape="http://www.inkscape.org/namespaces/inkscape"
   version="1.1"
   id="Layer_1"
   x="0px"
   y="0px"
   viewBox="0 0 68.087533 50.000001"
   xml:space="preserve"
   sodipodi:docname="arrow.svg"
   width="68.087532"
   height="50"
   inkscape:version="1.0.1 (3bc2e813f5, 2020-09-07)"><metadata
   id="metadata917"><rdf:RDF><cc:Work
       rdf:about=""><dc:format>image/svg+xml</dc:format><dc:type
         rdf:resource="http://purl.org/dc/dcmitype/StillImage" /></cc:Work></rdf:RDF></metadata><defs
   id="defs915" /><sodipodi:namedview
   pagecolor="#ffffff"
   bordercolor="#666666"
   borderopacity="1"
   objecttolerance="10"
   gridtolerance="10"
   guidetolerance="10"
   inkscape:pageopacity="0"
   inkscape:pageshadow="2"
   inkscape:window-width="1920"
   inkscape:window-height="1017"
   id="namedview913"
   showgrid="false"
   inkscape:zoom="1.4247852"
   inkscape:cx="18.951439"
   inkscape:cy="-35.951194"
   inkscape:window-x="4"
   inkscape:window-y="-8"
   inkscape:window-maximized="1"
   inkscape:current-layer="g878"
   inkscape:document-rotation="0" />
<g
   id="g880"
   transform="matrix(0.17298161,0,0,0.17298161,-8.5100605,-17.81702)">
	<g
   id="g878">
		<path
   d="m 225.2825,110.84757 -168.226169,218.948 c -5.068,5.064 -7.86,11.824 -7.86,19.032 0,7.208 2.792,13.968 7.86,19.032 l 16.12,16.124 c 10.504,10.492 27.575999,10.492 38.063999,0 l 133.13817,-183.856 136.38524,184.06 c 5.068,5.064 11.824,7.86 19.028,7.86 7.212,0 13.968,-2.796 19.04,-7.86 l 16.116,-16.124 c 5.068,-5.068 7.86,-11.824 7.86,-19.032 0,-7.208 -2.792,-13.968 -7.86,-19.032 L 263.4785,110.84757 c -5.084,-5.076 -11.872,-7.864 -19.088,-7.848 -7.244,-0.016 -14.028,2.772 -19.108,7.848 z"
   id="path876"
   sodipodi:nodetypes="ccscccccsccscccc"
   style="fill:#4d4d4d;fill-opacity:1" />
	</g>
</g>
<g
   id="g882"
   transform="translate(-92.434233,-17.81702)">
</g>
<g
   id="g884"
   transform="translate(-92.434233,-17.81702)">
</g>
<g
   id="g886"
   transform="translate(-92.434233,-17.81702)">
</g>
<g
   id="g888"
   transform="translate(-92.434233,-17.81702)">
</g>
<g
   id="g890"
   transform="translate(-92.434233,-17.81702)">
</g>
<g
   id="g892"
   transform="translate(-92.434233,-17.81702)">
</g>
<g
   id="g894"
   transform="translate(-92.434233,-17.81702)">
</g>
<g
   id="g896"
   transform="translate(-92.434233,-17.81702)">
</g>
<g
   id="g898"
   transform="translate(-92.434233,-17.81702)">
</g>
<g
   id="g900"
   transform="translate(-92.434233,-17.81702)">
</g>
<g
   id="g902"
   transform="translate(-92.434233,-17.81702)">
</g>
<g
   id="g904"
   transform="translate(-92.434233,-17.81702)">
</g>
<g
   id="g906"
   transform="translate(-92.434233,-17.81702)">
</g>
<g
   id="g908"
   transform="translate(-92.434233,-17.81702)">
</g>
<g
   id="g910"
   transform="translate(-92.434233,-17.81702)">
</g>
</svg>
