<?xml version="1.0" encoding="UTF-8" standalone="no"?>
<svg
   xmlns:dc="http://purl.org/dc/elements/1.1/"
   xmlns:cc="http://creativecommons.org/ns#"
   xmlns:rdf="http://www.w3.org/1999/02/22-rdf-syntax-ns#"
   xmlns:svg="http://www.w3.org/2000/svg"
   xmlns="http://www.w3.org/2000/svg"
   xmlns:sodipodi="http://sodipodi.sourceforge.net/DTD/sodipodi-0.dtd"
   xmlns:inkscape="http://www.inkscape.org/namespaces/inkscape"
   version="1.1"
   id="Capa_1"
   x="0px"
   y="0px"
   viewBox="0 0 50 62.5"
   xml:space="preserve"
   sodipodi:docname="download.svg"
   width="50"
   height="62.5"
   inkscape:version="1.0.1 (3bc2e813f5, 2020-09-07)"><metadata
   id="metadata951"><rdf:RDF><cc:Work
       rdf:about=""><dc:format>image/svg+xml</dc:format><dc:type
         rdf:resource="http://purl.org/dc/dcmitype/StillImage" /></cc:Work></rdf:RDF></metadata><defs
   id="defs949" /><sodipodi:namedview
   pagecolor="#ffffff"
   bordercolor="#666666"
   borderopacity="1"
   objecttolerance="10"
   gridtolerance="10"
   guidetolerance="10"
   inkscape:pageopacity="0"
   inkscape:pageshadow="2"
   inkscape:window-width="1920"
   inkscape:window-height="1017"
   id="namedview947"
   showgrid="false"
   inkscape:zoom="0.90416667"
   inkscape:cx="237.35124"
   inkscape:cy="239.90995"
   inkscape:window-x="4"
   inkscape:window-y="-8"
   inkscape:window-maximized="1"
   inkscape:current-layer="Capa_1" />

<g
   id="g1520"
   transform="scale(0.13020833)"><g
     id="g908"
     transform="translate(-48)"
     style="fill:#4d4d4d;fill-opacity:1">
	<g
   id="g906"
   style="fill:#4d4d4d;fill-opacity:1">
		<path
   d="m 378.528,214.688 -21.088,-24 c -5.824,-6.624 -15.904,-7.264 -22.56,-1.472 L 272,244.32 V 16 C 272,7.168 264.832,0 256,0 h -32 c -8.832,0 -16,7.168 -16,16 v 228.32 l -62.88,-55.104 c -6.624,-5.792 -16.704,-5.152 -22.56,1.472 l -21.088,23.968 c -5.856,6.656 -5.184,16.8 1.472,22.624 l 126.528,110.752 c 6.048,5.28 15.04,5.28 21.088,0 L 377.056,237.28 c 6.656,-5.824 7.328,-15.968 1.472,-22.592 z"
   id="path904"
   style="fill:#4d4d4d;fill-opacity:1" />
	</g>
</g><g
     id="g914"
     transform="translate(-48)"
     style="fill:#4d4d4d;fill-opacity:1">
	<g
   id="g912"
   style="fill:#4d4d4d;fill-opacity:1">
		<path
   d="M 416,416 H 64 c -8.832,0 -16,7.168 -16,16 v 32 c 0,8.832 7.168,16 16,16 h 352 c 8.832,0 16,-7.168 16,-16 v -32 c 0,-8.832 -7.168,-16 -16,-16 z"
   id="path910"
   style="fill:#4d4d4d;fill-opacity:1" />
	</g>
</g></g>
<g
   id="g916"
   transform="translate(-48)">
</g>
<g
   id="g918"
   transform="translate(-48)">
</g>
<g
   id="g920"
   transform="translate(-48)">
</g>
<g
   id="g922"
   transform="translate(-48)">
</g>
<g
   id="g924"
   transform="translate(-48)">
</g>
<g
   id="g926"
   transform="translate(-48)">
</g>
<g
   id="g928"
   transform="translate(-48)">
</g>
<g
   id="g930"
   transform="translate(-48)">
</g>
<g
   id="g932"
   transform="translate(-48)">
</g>
<g
   id="g934"
   transform="translate(-48)">
</g>
<g
   id="g936"
   transform="translate(-48)">
</g>
<g
   id="g938"
   transform="translate(-48)">
</g>
<g
   id="g940"
   transform="translate(-48)">
</g>
<g
   id="g942"
   transform="translate(-48)">
</g>
<g
   id="g944"
   transform="translate(-48)">
</g>
</svg>
