<?xml version="1.0" encoding="UTF-8" standalone="no"?>
<svg
   xmlns:dc="http://purl.org/dc/elements/1.1/"
   xmlns:cc="http://creativecommons.org/ns#"
   xmlns:rdf="http://www.w3.org/1999/02/22-rdf-syntax-ns#"
   xmlns:svg="http://www.w3.org/2000/svg"
   xmlns="http://www.w3.org/2000/svg"
   xmlns:sodipodi="http://sodipodi.sourceforge.net/DTD/sodipodi-0.dtd"
   xmlns:inkscape="http://www.inkscape.org/namespaces/inkscape"
   version="1.1"
   id="Capa_1"
   x="0px"
   y="0px"
   viewBox="0 0 50.000002 50.217794"
   xml:space="preserve"
   sodipodi:docname="edit.svg"
   width="50"
   height="50.217793"
   inkscape:version="1.0.1 (3bc2e813f5, 2020-09-07)"><metadata
   id="metadata939"><rdf:RDF><cc:Work
       rdf:about=""><dc:format>image/svg+xml</dc:format><dc:type
         rdf:resource="http://purl.org/dc/dcmitype/StillImage" /></cc:Work></rdf:RDF></metadata><defs
   id="defs937" /><sodipodi:namedview
   pagecolor="#ffffff"
   bordercolor="#666666"
   borderopacity="1"
   objecttolerance="10"
   gridtolerance="10"
   guidetolerance="10"
   inkscape:pageopacity="0"
   inkscape:pageshadow="2"
   inkscape:window-width="1920"
   inkscape:window-height="1017"
   id="namedview935"
   showgrid="false"
   inkscape:zoom="2.4879473"
   inkscape:cx="-61.181645"
   inkscape:cy="63.372189"
   inkscape:window-x="4"
   inkscape:window-y="-8"
   inkscape:window-maximized="1"
   inkscape:current-layer="Capa_1" />
<g
   id="g902"
   transform="matrix(0.1439396,0,0,0.1439396,-0.10896228,0)"
   style="fill:#4d4d4d;fill-opacity:1">
	<path
   d="m 333.988,11.758 -0.42,-0.383 C 325.538,4.04 315.129,0 304.258,0 292.071,0 280.37,5.159 272.154,14.153 L 116.803,184.231 c -1.416,1.55 -2.49,3.379 -3.154,5.37 l -18.267,54.762 c -2.112,6.331 -1.052,13.333 2.835,18.729 3.918,5.438 10.23,8.685 16.886,8.685 0,0 0.001,0 0.001,0 2.879,0 5.693,-0.592 8.362,-1.76 l 52.89,-23.138 c 1.923,-0.841 3.648,-2.076 5.063,-3.626 L 336.771,73.176 C 352.937,55.479 351.69,27.929 333.988,11.758 Z m -203.607,222.489 10.719,-32.134 0.904,-0.99 20.316,18.556 -0.904,0.99 z M 314.621,52.943 182.553,197.53 162.237,178.974 294.305,34.386 c 2.583,-2.828 6.118,-4.386 9.954,-4.386 3.365,0 6.588,1.252 9.082,3.53 l 0.419,0.383 c 5.484,5.009 5.87,13.546 0.861,19.03 z"
   id="path898"
   style="fill:#4d4d4d;fill-opacity:1" />
	<path
   d="m 303.85,138.388 c -8.284,0 -15,6.716 -15,15 v 127.347 c 0,21.034 -17.113,38.147 -38.147,38.147 H 68.904 c -21.035,0 -38.147,-17.113 -38.147,-38.147 V 100.413 c 0,-21.034 17.113,-38.147 38.147,-38.147 h 131.587 c 8.284,0 15,-6.716 15,-15 0,-8.284 -6.716,-15 -15,-15 H 68.904 c -37.577,0 -68.147,30.571 -68.147,68.147 v 180.321 c 0,37.576 30.571,68.147 68.147,68.147 h 181.798 c 37.576,0 68.147,-30.571 68.147,-68.147 V 153.388 c 0.001,-8.284 -6.715,-15 -14.999,-15 z"
   id="path900"
   style="fill:#4d4d4d;fill-opacity:1" />
</g>
<g
   id="g904"
   transform="translate(-0.75700001)">
</g>
<g
   id="g906"
   transform="translate(-0.75700001)">
</g>
<g
   id="g908"
   transform="translate(-0.75700001)">
</g>
<g
   id="g910"
   transform="translate(-0.75700001)">
</g>
<g
   id="g912"
   transform="translate(-0.75700001)">
</g>
<g
   id="g914"
   transform="translate(-0.75700001)">
</g>
<g
   id="g916"
   transform="translate(-0.75700001)">
</g>
<g
   id="g918"
   transform="translate(-0.75700001)">
</g>
<g
   id="g920"
   transform="translate(-0.75700001)">
</g>
<g
   id="g922"
   transform="translate(-0.75700001)">
</g>
<g
   id="g924"
   transform="translate(-0.75700001)">
</g>
<g
   id="g926"
   transform="translate(-0.75700001)">
</g>
<g
   id="g928"
   transform="translate(-0.75700001)">
</g>
<g
   id="g930"
   transform="translate(-0.75700001)">
</g>
<g
   id="g932"
   transform="translate(-0.75700001)">
</g>
</svg>
