<?xml version="1.0" encoding="UTF-8" standalone="no"?>
<svg
   xmlns:dc="http://purl.org/dc/elements/1.1/"
   xmlns:cc="http://creativecommons.org/ns#"
   xmlns:rdf="http://www.w3.org/1999/02/22-rdf-syntax-ns#"
   xmlns:svg="http://www.w3.org/2000/svg"
   xmlns="http://www.w3.org/2000/svg"
   xmlns:sodipodi="http://sodipodi.sourceforge.net/DTD/sodipodi-0.dtd"
   xmlns:inkscape="http://www.inkscape.org/namespaces/inkscape"
   version="1.1"
   id="Capa_1"
   x="0px"
   y="0px"
   viewBox="0 0 50 47.164349"
   xml:space="preserve"
   sodipodi:docname="errors.svg"
   width="50"
   height="47.164349"
   inkscape:version="1.0.1 (3bc2e813f5, 2020-09-07)"><metadata
   id="metadata961"><rdf:RDF><cc:Work
       rdf:about=""><dc:format>image/svg+xml</dc:format><dc:type
         rdf:resource="http://purl.org/dc/dcmitype/StillImage" /></cc:Work></rdf:RDF></metadata><defs
   id="defs959" /><sodipodi:namedview
   pagecolor="#ffffff"
   bordercolor="#666666"
   borderopacity="1"
   objecttolerance="10"
   gridtolerance="10"
   guidetolerance="10"
   inkscape:pageopacity="0"
   inkscape:pageshadow="2"
   inkscape:window-width="1920"
   inkscape:window-height="1017"
   id="namedview957"
   showgrid="false"
   inkscape:zoom="2.3975339"
   inkscape:cx="124.99105"
   inkscape:cy="15.490639"
   inkscape:window-x="4"
   inkscape:window-y="-8"
   inkscape:window-maximized="1"
   inkscape:current-layer="Capa_1" />
<g
   id="g1527"
   transform="scale(0.09765644)"><g
     id="g924"
     transform="translate(-5.7644714e-4,-14.519)"
     style="fill:#4d4d4d;fill-opacity:1">
	<g
   id="g922"
   style="fill:#4d4d4d;fill-opacity:1">
		<path
   d="M 501.609,384.603 320.543,51.265 C 306.877,28.259 282.741,14.519 255.981,14.519 c -26.76,0 -50.896,13.74 -64.562,36.746 -0.103,0.176 -0.19,0.352 -0.293,0.528 L 10.662,384.076 c -13.959,23.491 -14.223,51.702 -0.719,75.457 13.535,23.769 37.919,37.948 65.266,37.948 h 360.544 c 27.347,0 52.733,-14.179 66.267,-37.948 13.504,-23.754 13.241,-51.967 -0.411,-74.93 z M 225.951,167.148 c 0,-16.586 13.445,-30.03 30.03,-30.03 16.586,0 30.03,13.445 30.03,30.03 v 120.121 c 0,16.584 -13.445,30.03 -30.03,30.03 -16.585,0 -30.03,-13.447 -30.03,-30.03 V 167.148 Z m 30.03,270.273 c -24.839,0 -45.046,-20.206 -45.046,-45.046 0,-24.839 20.206,-45.045 45.046,-45.045 24.839,0 45.045,20.206 45.045,45.045 10e-4,24.839 -20.205,45.046 -45.045,45.046 z"
   id="path920"
   style="fill:#4d4d4d;fill-opacity:1" />
	</g>
</g></g>
<g
   id="g926"
   transform="translate(-5.7644714e-4,-14.519)">
</g>
<g
   id="g928"
   transform="translate(-5.7644714e-4,-14.519)">
</g>
<g
   id="g930"
   transform="translate(-5.7644714e-4,-14.519)">
</g>
<g
   id="g932"
   transform="translate(-5.7644714e-4,-14.519)">
</g>
<g
   id="g934"
   transform="translate(-5.7644714e-4,-14.519)">
</g>
<g
   id="g936"
   transform="translate(-5.7644714e-4,-14.519)">
</g>
<g
   id="g938"
   transform="translate(-5.7644714e-4,-14.519)">
</g>
<g
   id="g940"
   transform="translate(-5.7644714e-4,-14.519)">
</g>
<g
   id="g942"
   transform="translate(-5.7644714e-4,-14.519)">
</g>
<g
   id="g944"
   transform="translate(-5.7644714e-4,-14.519)">
</g>
<g
   id="g946"
   transform="translate(-5.7644714e-4,-14.519)">
</g>
<g
   id="g948"
   transform="translate(-5.7644714e-4,-14.519)">
</g>
<g
   id="g950"
   transform="translate(-5.7644714e-4,-14.519)">
</g>
<g
   id="g952"
   transform="translate(-5.7644714e-4,-14.519)">
</g>
<g
   id="g954"
   transform="translate(-5.7644714e-4,-14.519)">
</g>
</svg>
