<?xml version="1.0" encoding="UTF-8" standalone="no"?>
<svg
   xmlns:dc="http://purl.org/dc/elements/1.1/"
   xmlns:cc="http://creativecommons.org/ns#"
   xmlns:rdf="http://www.w3.org/1999/02/22-rdf-syntax-ns#"
   xmlns:svg="http://www.w3.org/2000/svg"
   xmlns="http://www.w3.org/2000/svg"
   xmlns:sodipodi="http://sodipodi.sourceforge.net/DTD/sodipodi-0.dtd"
   xmlns:inkscape="http://www.inkscape.org/namespaces/inkscape"
   enable-background="new 0 0 24 24"
   height="50.002083"
   viewBox="0 0 2.3437504 2.3438476"
   width="50.000008"
   version="1.1"
   id="svg3364"
   sodipodi:docname="settings.svg"
   inkscape:version="1.0.1 (3bc2e813f5, 2020-09-07)">
  <metadata
     id="metadata3370">
    <rdf:RDF>
      <cc:Work
         rdf:about="">
        <dc:format>image/svg+xml</dc:format>
        <dc:type
           rdf:resource="http://purl.org/dc/dcmitype/StillImage" />
      </cc:Work>
    </rdf:RDF>
  </metadata>
  <defs
     id="defs3368" />
  <sodipodi:namedview
     pagecolor="#ffffff"
     bordercolor="#666666"
     borderopacity="1"
     objecttolerance="10"
     gridtolerance="10"
     guidetolerance="10"
     inkscape:pageopacity="0"
     inkscape:pageshadow="2"
     inkscape:window-width="1920"
     inkscape:window-height="1017"
     id="namedview3366"
     showgrid="false"
     inkscape:zoom="0.42382813"
     inkscape:cx="486.35063"
     inkscape:cy="532.65205"
     inkscape:window-x="4"
     inkscape:window-y="-8"
     inkscape:window-maximized="1"
     inkscape:current-layer="svg3364" />
  <path
     d="M 2.2152289,0.917421 2.0316275,0.89408018 c -0.015137,-0.046584 -0.03379,-0.0915077 -0.055569,-0.13418527 L 2.0894424,0.61389274 c 0.0459,-0.0590845 0.040529,-0.1424864 -0.011914,-0.19326976 l -0.153815,-0.153815 C 1.8724412,0.21387609 1.7890393,0.20860243 1.7298572,0.25440512 L 1.5840503,0.36778875 C 1.5413727,0.3460105 1.496449,0.32735738 1.4497674,0.31222003 L 1.4264266,0.12891162 C 1.4176371,0.0553734 1.3552322,0 1.2813033,0 H 1.0625442 C 0.98861537,0 0.92621043,0.0553734 0.917421,0.12861863 L 0.8940802,0.31222003 C 0.8473986,0.32735733 0.8024748,0.34591283 0.75979727,0.36778873 L 0.61389274,0.25440512 C 0.55490591,0.20860243 0.471504,0.21387609 0.42062298,0.26631968 l -0.153815,0.15371733 c -0.0529319,0.0513693 -0.0583032,0.13477124 -0.0124029,0.19395339 l 0.11338363,0.14590451 c -0.0218759,0.0426776 -0.0404314,0.0876013 -0.0555687,0.13418527 L 0.12891162,0.917421 C 0.0553734,0.92621043 0,0.98861537 0,1.0625442 v 0.2187591 c 0,0.073929 0.0553734,0.1363338 0.12861863,0.1451233 l 0.1836014,0.023341 c 0.0151373,0.046584 0.0337905,0.091508 0.0555687,0.1341852 l -0.11338361,0.146002 c -0.0459003,0.059084 -0.040529,0.1424864 0.0119146,0.1932698 l 0.15381499,0.153815 c 0.0513693,0.052834 0.13467358,0.058108 0.19385573,0.012305 L 0.75989491,1.9759611 c 0.0426776,0.021876 0.0876013,0.040529 0.13418527,0.055569 L 0.917421,2.2147406 c 0.008789,0.073734 0.0711944,0.129107 0.1451232,0.129107 h 0.2187591 c 0.073929,0 0.1363338,-0.055373 0.1451233,-0.1286187 l 0.023341,-0.1836014 c 0.046584,-0.015137 0.091508,-0.03379 0.1341852,-0.055569 L 1.729955,2.0894421 c 0.059084,0.0459 0.1424864,0.040529 0.1932698,-0.011914 l 0.153815,-0.153815 c 0.052932,-0.051369 0.058303,-0.1346736 0.012403,-0.1938557 L 1.9760588,1.5839526 c 0.021876,-0.042677 0.040529,-0.087601 0.055569,-0.1341852 l 0.1832108,-0.023341 c 0.073538,-0.00879 0.1289116,-0.071194 0.1289116,-0.1451233 V 1.0625442 C 2.3438476,0.98861537 2.2884742,0.92621043 2.2152289,0.917421 Z M 1.1719238,1.6602254 c -0.26924951,0 -0.4883016,-0.2190521 -0.4883016,-0.4883016 0,-0.26924951 0.21905209,-0.4883016 0.4883016,-0.4883016 0.2692495,0 0.4883016,0.21905209 0.4883016,0.4883016 0,0.2692495 -0.2190521,0.4883016 -0.4883016,0.4883016 z"
     id="path3362"
     style="fill:#4d4d4d;fill-opacity:1;stroke-width:0.0976603" />
</svg>
