<?xml version="1.0" encoding="UTF-8" standalone="no"?>
<svg
   xmlns:dc="http://purl.org/dc/elements/1.1/"
   xmlns:cc="http://creativecommons.org/ns#"
   xmlns:rdf="http://www.w3.org/1999/02/22-rdf-syntax-ns#"
   xmlns:svg="http://www.w3.org/2000/svg"
   xmlns="http://www.w3.org/2000/svg"
   xmlns:sodipodi="http://sodipodi.sourceforge.net/DTD/sodipodi-0.dtd"
   xmlns:inkscape="http://www.inkscape.org/namespaces/inkscape"
   version="1.1"
   id="Capa_1"
   x="0px"
   y="0px"
   viewBox="0 0 30.262 30.258"
   xml:space="preserve"
   sodipodi:docname="validatorsAndFunctionalities.svg"
   width="30.261999"
   height="30.257999"
   inkscape:version="1.0.1 (3bc2e813f5, 2020-09-07)"><metadata
   id="metadata4131"><rdf:RDF><cc:Work
       rdf:about=""><dc:format>image/svg+xml</dc:format><dc:type
         rdf:resource="http://purl.org/dc/dcmitype/StillImage" /></cc:Work></rdf:RDF></metadata><defs
   id="defs4129" /><sodipodi:namedview
   pagecolor="#ffffff"
   bordercolor="#666666"
   borderopacity="1"
   objecttolerance="10"
   gridtolerance="10"
   guidetolerance="10"
   inkscape:pageopacity="0"
   inkscape:pageshadow="2"
   inkscape:window-width="1920"
   inkscape:window-height="1017"
   id="namedview4127"
   showgrid="false"
   inkscape:zoom="10.140914"
   inkscape:cx="27.633707"
   inkscape:cy="23.645946"
   inkscape:window-x="4"
   inkscape:window-y="-8"
   inkscape:window-maximized="1"
   inkscape:current-layer="Capa_1" />
<g
   id="g4094"
   transform="translate(0,-0.002)"
   style="fill:#4d4d4d;fill-opacity:1">
	<path
   style="fill:#4d4d4d;fill-opacity:1"
   d="M 15.131,0.002 C 6.773,0.002 0,6.777 0,15.13 c 0,8.358 6.773,15.13 15.131,15.13 8.358,0 15.131,-6.771 15.131,-15.13 0,-8.353 -6.774,-15.128 -15.131,-15.128 z m -2.272,24.146 c -0.34,0.336 -0.887,0.336 -1.223,0 l -0.271,-0.271 v 0 L 11.07,23.584 9.804,22.318 9.784,22.289 3.977,16.438 c -0.338,-0.336 -0.338,-0.887 0,-1.22 l 1.83,-1.83 c 0.34,-0.339 0.883,-0.339 1.221,0 l 5.225,5.262 10.98,-10.982 c 0.336,-0.337 0.883,-0.337 1.219,0 l 1.83,1.832 c 0.338,0.336 0.338,0.885 0,1.221 z"
   id="path4092" />
</g>
<g
   id="g4096"
   transform="translate(0,-0.002)">
</g>
<g
   id="g4098"
   transform="translate(0,-0.002)">
</g>
<g
   id="g4100"
   transform="translate(0,-0.002)">
</g>
<g
   id="g4102"
   transform="translate(0,-0.002)">
</g>
<g
   id="g4104"
   transform="translate(0,-0.002)">
</g>
<g
   id="g4106"
   transform="translate(0,-0.002)">
</g>
<g
   id="g4108"
   transform="translate(0,-0.002)">
</g>
<g
   id="g4110"
   transform="translate(0,-0.002)">
</g>
<g
   id="g4112"
   transform="translate(0,-0.002)">
</g>
<g
   id="g4114"
   transform="translate(0,-0.002)">
</g>
<g
   id="g4116"
   transform="translate(0,-0.002)">
</g>
<g
   id="g4118"
   transform="translate(0,-0.002)">
</g>
<g
   id="g4120"
   transform="translate(0,-0.002)">
</g>
<g
   id="g4122"
   transform="translate(0,-0.002)">
</g>
<g
   id="g4124"
   transform="translate(0,-0.002)">
</g>
</svg>
